<mxfile host="65bd71144e">
    <diagram id="qGJenGY2Y8oS1E2IgpgX" name="Page-1">
        <mxGraphModel dx="1062" dy="842" grid="1" gridSize="10" guides="1" tooltips="1" connect="1" arrows="1" fold="1" page="1" pageScale="1" pageWidth="827" pageHeight="1169" math="0" shadow="0">
            <root>
                <mxCell id="0"/>
                <mxCell id="1" parent="0"/>
                <mxCell id="2" value="&lt;font style=&quot;font-size: 96px;&quot;&gt;&lt;font face=&quot;Times New Roman&quot; color=&quot;#ff8000&quot;&gt;&lt;i style=&quot;&quot;&gt;Fu&lt;/i&gt;&lt;/font&gt;&lt;b style=&quot;&quot;&gt;&lt;font face=&quot;Times New Roman&quot; color=&quot;#000066&quot;&gt;Yun&lt;/font&gt;&lt;/b&gt;&lt;/font&gt;" style="text;html=1;strokeColor=none;fillColor=none;align=center;verticalAlign=middle;whiteSpace=wrap;rounded=0;" vertex="1" parent="1">
                    <mxGeometry x="220" y="250" width="340" height="110" as="geometry"/>
                </mxCell>
            </root>
        </mxGraphModel>
    </diagram>
</mxfile>